<svg class="header__logo" width="140" height="36" viewBox="0 0 200 40" fill="none" xmlns="http://www.w3.org/2000/svg">
<g>
    <path d="M165.389 8.38323C167.715 8.38323 169.601 6.50658 169.601 4.19162C169.601 1.87665 167.715 0 165.389 0C163.063 0 161.178 1.87665 161.178 4.19162C161.178 6.50658 163.063 8.38323 165.389 8.38323Z" fill="#3ACE85"></path>
    <path d="M24.1517 13.5129C20.6786 13.5129 17.8842 15.0898 16.7066 17.6247C15.5289 15.0698 12.7345 13.5129 9.26148 13.5129C3.81237 13.5129 0 17.6846 0 23.6527V39.3413H5.78842V23.6926C5.78842 21.0978 7.36527 19.2814 9.62076 19.2814C12.3752 19.2814 13.8124 21.0578 13.8124 24.3912V39.3213H19.6008V24.3912C19.6008 21.0379 21.0579 19.2814 23.7924 19.2814C26.0479 19.2814 27.6247 21.0978 27.6247 23.6926V39.3413H33.4132V23.6527C33.4132 17.6846 29.6008 13.5129 24.1517 13.5129Z" fill="#395AD2"></path>
    <path d="M58.7626 16.8263C57.1259 14.7505 54.2915 13.5129 51.038 13.5129C43.0939 13.5129 37.7446 20.3592 37.7446 26.7465C37.7446 33.2535 42.6149 39.98 50.7786 39.98C53.9522 39.98 56.9462 38.7026 58.7426 36.6267V39.3213H64.531V14.1716H58.7426V16.8263H58.7626ZM58.9622 26.7664C58.9622 30.978 55.5291 34.5309 51.4572 34.5309C47.2656 34.5309 43.8524 31.0379 43.8524 26.7664C43.8524 22.495 47.2656 19.002 51.4572 19.002C55.5291 19.002 58.9622 22.5549 58.9622 26.7664Z" fill="#395AD2"></path>
    <path d="M83.992 13.5129C80.8782 13.5129 78.2235 14.7505 76.5868 16.9062V14.1916H70.7983V39.3413H76.5868V25.2894C76.5868 21.6567 78.8822 19.3014 82.4151 19.3014C86.1476 19.3014 88.0439 21.3573 88.0439 25.3892V39.3413H93.8323V24.2115C93.8123 18.2235 89.5009 13.5129 83.992 13.5129Z" fill="#395AD2"></path>
    <path d="M119.242 16.8263C117.605 14.7505 114.771 13.5129 111.517 13.5129C103.573 13.5129 98.2236 20.3592 98.2236 26.7465C98.2236 33.2535 103.094 39.98 111.258 39.98C114.431 39.98 117.425 38.7026 119.222 36.6267V39.3213H125.01V14.1716H119.222V16.8263H119.242ZM119.461 26.7664C119.461 30.978 116.028 34.5309 111.956 34.5309C107.765 34.5309 104.351 31.0379 104.351 26.7664C104.351 22.495 107.765 19.002 111.956 19.002C116.008 19.002 119.461 22.5549 119.461 26.7664Z" fill="#395AD2"></path>
    <path d="M144.99 13.5129C141.836 13.5129 138.623 14.8701 137.066 16.8262V6.84619H131.277V39.3412H137.066V36.7065C138.603 38.6426 141.816 40.0198 144.99 40.0198C151.337 40.0198 158.084 35.3691 158.084 26.7863C158.084 18.2035 151.337 13.5129 144.99 13.5129ZM151.996 26.7663C151.996 31.2574 148.862 34.5308 144.531 34.5308C140.199 34.5308 137.066 31.2574 137.066 26.7663C137.066 22.2753 140.199 19.0019 144.531 19.0019C148.842 19.0019 151.996 22.2554 151.996 26.7663Z" fill="#395AD2"></path>
    <path d="M168.284 16.2874H162.495V39.2215H168.284V16.2874Z" fill="#395AD2"></path>
    <path d="M186.567 13.5129C177.565 13.5129 172.714 20.3393 172.714 26.7465C172.714 33.1537 177.565 39.98 186.567 39.98C190.998 39.9201 195.13 37.7644 198.223 33.8722L198.403 33.6527L193.473 30.9381L193.353 31.0978C191.517 33.5329 189.122 34.8303 186.407 34.8303C182.694 34.8303 179.541 32.2155 179.122 28.8223H199.601V27.6247C199.601 17.9042 191.976 13.5129 186.567 13.5129ZM185.848 18.6826C189.122 18.6826 191.716 20.6586 192.814 23.972H179.161C180.06 20.6986 182.595 18.6826 185.848 18.6826Z" fill="#395AD2"></path>
    <path d="M24.1517 13.5129C20.6786 13.5129 17.8842 15.0898 16.7066 17.6247C15.5289 15.0698 12.7345 13.5129 9.26148 13.5129C3.81237 13.5129 0 17.6846 0 23.6527V39.3413H5.78842V23.6926C5.78842 21.0978 7.36527 19.2814 9.62076 19.2814C12.3752 19.2814 13.8124 21.0578 13.8124 24.3912V39.3213H19.6008V24.3912C19.6008 21.0379 21.0579 19.2814 23.7924 19.2814C26.0479 19.2814 27.6247 21.0978 27.6247 23.6926V39.3413H33.4132V23.6527C33.4132 17.6846 29.6008 13.5129 24.1517 13.5129Z" fill="#395AD2"></path>
</g>
<defs>
    <clipPath id="clip-logo">
    <rect width="199.601" height="40" fill="white"></rect>
    </clipPath>
</defs>
</svg>