<svg width="20" height="16" viewBox="0 0 20 16" fill="none" xmlns="http://www.w3.org/2000/svg">
<path d="M3.32505 0.491699C3.15927 0.491743 2.99727 0.541225 2.85976 0.63382C2.72226 0.726415 2.61549 0.857915 2.55311 1.01151C2.49073 1.1651 2.47557 1.33381 2.50957 1.49606C2.54357 1.65831 2.62519 1.80674 2.74399 1.92236L4.23 3.40837C2.62011 4.70128 1.57612 6.28651 1.05942 7.21696C0.782757 7.71529 0.791846 8.31523 1.06268 8.81689C2.02518 10.5986 4.79235 14.6665 9.99985 14.6665C11.7295 14.6665 13.1715 14.2121 14.3683 13.5467L16.0773 15.2557C16.1541 15.3357 16.2461 15.3995 16.3479 15.4435C16.4496 15.4875 16.5592 15.5107 16.67 15.5119C16.7809 15.513 16.8909 15.492 16.9935 15.4501C17.0962 15.4082 17.1894 15.3462 17.2678 15.2678C17.3462 15.1894 17.4082 15.0962 17.4501 14.9935C17.492 14.8909 17.513 14.7809 17.5119 14.67C17.5108 14.5591 17.4875 14.4496 17.4435 14.3478C17.3995 14.2461 17.3357 14.1541 17.2557 14.0773L3.92238 0.743978C3.84472 0.664149 3.75185 0.600695 3.64926 0.557364C3.54666 0.514034 3.43642 0.491706 3.32505 0.491699V0.491699ZM9.99985 1.33317C8.98985 1.33317 8.08802 1.4996 7.26385 1.7596L9.39764 3.89339C9.59514 3.86423 9.79402 3.83317 9.99985 3.83317C12.3007 3.83317 14.1665 5.699 14.1665 7.99984C14.1665 8.20567 14.1355 8.40455 14.1063 8.60205L16.9644 11.4601C17.8594 10.4668 18.5144 9.45923 18.9061 8.78923C19.2011 8.28589 19.1999 7.66761 18.9208 7.15511C17.9466 5.36094 15.1824 1.33317 9.99985 1.33317ZM6.52817 5.70654L7.74725 6.92562C7.58999 7.25053 7.49985 7.61364 7.49985 7.99984C7.49985 9.38067 8.61902 10.4998 9.99985 10.4998C10.386 10.4998 10.7492 10.4097 11.0741 10.2524L12.2948 11.4731C11.4668 12.0221 10.4337 12.2852 9.33254 12.1144C7.5842 11.8428 6.15694 10.4155 5.88527 8.66715C5.71458 7.5665 5.97965 6.53433 6.52817 5.70654Z" fill="#223e62"/>
</svg>
