<svg width="20" height="14" viewBox="0 0 20 14" fill="none" xmlns="http://www.w3.org/2000/svg">
<path d="M9.99998 0.333496C4.28498 0.333496 1.5714 5.23236 0.913066 6.6307C0.803066 6.86403 0.803066 7.13467 0.913066 7.368C1.5714 8.76717 4.28498 13.6668 9.99998 13.6668C15.695 13.6668 18.4104 8.80261 19.0804 7.38428C19.1954 7.14011 19.1954 6.86021 19.0804 6.61605C18.4104 5.19771 15.695 0.333496 9.99998 0.333496ZM9.99998 2.8335C12.3008 2.8335 14.1666 4.69933 14.1666 7.00016C14.1666 9.301 12.3008 11.1668 9.99998 11.1668C7.69915 11.1668 5.83331 9.301 5.83331 7.00016C5.83331 4.69933 7.69915 2.8335 9.99998 2.8335ZM9.99998 4.50016C9.33694 4.50016 8.70105 4.76355 8.23221 5.2324C7.76337 5.70124 7.49998 6.33712 7.49998 7.00016C7.49998 7.6632 7.76337 8.29909 8.23221 8.76793C8.70105 9.23677 9.33694 9.50016 9.99998 9.50016C10.663 9.50016 11.2989 9.23677 11.7677 8.76793C12.2366 8.29909 12.5 7.6632 12.5 7.00016C12.5 6.33712 12.2366 5.70124 11.7677 5.2324C11.2989 4.76355 10.663 4.50016 9.99998 4.50016Z" fill="#395ad2"/>
</svg>
