<svg width="20" height="20" viewBox="0 0 20 20" fill="none" xmlns="http://www.w3.org/2000/svg">
<g clip-path="url(#clip0)">
<path d="M10.0013 0C7.14418 0 4.80859 2.33559 4.80859 5.19275C4.80859 8.04991 7.14418 10.3855 10.0013 10.3855C12.8585 10.3855 15.1941 8.04991 15.1941 5.19275C15.1941 2.33559 12.8585 0 10.0013 0Z" fill="#B5CBE8"/>
<path d="M18.9149 14.5352C18.7789 14.195 18.5975 13.8776 18.3934 13.5828C17.3503 12.0408 15.7404 11.0204 13.9263 10.771C13.6996 10.7483 13.4501 10.7936 13.2687 10.9297C12.3163 11.6326 11.1826 11.9954 10.0034 11.9954C8.82423 11.9954 7.69046 11.6326 6.73808 10.9297C6.55665 10.7936 6.30722 10.7256 6.08048 10.771C4.26642 11.0204 2.63378 12.0408 1.61338 13.5828C1.4093 13.8776 1.22788 14.2177 1.09185 14.5352C1.02384 14.6712 1.0465 14.8299 1.11451 14.966C1.29593 15.2835 1.52267 15.601 1.72675 15.873C2.0442 16.3039 2.38434 16.6894 2.76985 17.0522C3.0873 17.3696 3.4501 17.6644 3.81295 17.9592C5.60431 19.2971 7.75852 20 9.98074 20C12.203 20 14.3572 19.297 16.1485 17.9592C16.5113 17.6871 16.8741 17.3696 17.1916 17.0522C17.5544 16.6894 17.9172 16.3039 18.2347 15.873C18.4615 15.5783 18.6656 15.2835 18.847 14.966C18.9603 14.8299 18.983 14.6712 18.9149 14.5352Z" fill="#B5CBE8"/>
</g>
<defs>
<clipPath id="clip0">
<rect width="20" height="20" fill="white"/>
</clipPath>
</defs>
</svg>
