<svg width="456" height="456" viewBox="0 0 456 456" fill="none" xmlns="http://www.w3.org/2000/svg">
<path d="M405.5 412.8C335.8 469.7 118.2 469.7 49.9001 412.8C-19.7999 355.9 -12.6999 112.7 49.9001 48.7C112.5 -15.3 342.9 -15.3 405.5 48.7C468.1 112.7 475.2 355.9 405.5 412.8Z" fill="#2A4CC8"/>
<path d="M229.1 313.2C166.6 363 96.9002 388.6 31.4002 390C-16.8998 307.5 -6.99978 107 49.9002 48.7C101.1 -3.9 261.8 -13.9 354.3 18.8C377 112.7 330.1 232.1 229.1 313.2Z" fill="#395AD2"/>
<path fill-rule="evenodd" clip-rule="evenodd" d="M228 125.5C236.284 125.5 243 132.216 243 140.5V315.5C243 323.784 236.284 330.5 228 330.5C219.716 330.5 213 323.784 213 315.5V140.5C213 132.216 219.716 125.5 228 125.5Z" fill="white"/>
<path fill-rule="evenodd" clip-rule="evenodd" d="M125.5 228C125.5 219.716 132.216 213 140.5 213H315.5C323.784 213 330.5 219.716 330.5 228C330.5 236.284 323.784 243 315.5 243H140.5C132.216 243 125.5 236.284 125.5 228Z" fill="white"/>
</svg>
