<svg width="42" height="42" viewBox="0 0 42 42" fill="none" xmlns="http://www.w3.org/2000/svg">
<path d="M0 21C0 9.40202 9.40202 0 21 0C32.598 0 42 9.40202 42 21C42 32.598 32.598 42 21 42C9.40202 42 0 32.598 0 21Z" fill="#EE4064" fill-opacity="0.1"/>
<path d="M27.9391 17.6971C28.1384 17.6971 28.3193 17.7841 28.4623 17.9311C28.5955 18.0881 28.6626 18.2831 28.6432 18.4891C28.6432 18.5571 28.1102 25.2971 27.8058 28.134C27.6152 29.875 26.4929 30.932 24.8094 30.961C23.5149 30.99 22.2496 31 21.0038 31C19.6811 31 18.3876 30.99 17.1321 30.961C15.505 30.922 14.3817 29.846 14.2008 28.134C13.8876 25.2871 13.3644 18.5571 13.3547 18.4891C13.3449 18.2831 13.4111 18.0881 13.5453 17.9311C13.6776 17.7841 13.8682 17.6971 14.0685 17.6971H27.9391ZM23.0647 11C23.9488 11 24.7385 11.617 24.967 12.497L25.1304 13.227C25.2627 13.822 25.7781 14.243 26.3714 14.243H29.2871C29.6761 14.243 30 14.566 30 14.977V15.357C30 15.758 29.6761 16.0909 29.2871 16.0909H12.7139C12.3239 16.0909 12 15.758 12 15.357V14.977C12 14.566 12.3239 14.243 12.7139 14.243H15.6296C16.2218 14.243 16.7373 13.822 16.8705 13.228L17.0232 12.546C17.2605 11.617 18.0415 11 18.9353 11H23.0647Z" fill="#EE4064"/>
</svg>
