<svg width="42" height="42" viewBox="0 0 42 42" fill="none" xmlns="http://www.w3.org/2000/svg">
<rect width="42" height="42" rx="21" fill="#EE4064" fill-opacity="0.08"/>
<path fill="#EE4064" d="M28.9898 27.9533C29.5469 27.9533 30 28.4123 30 28.9766C30 29.5421 29.5469 30 28.9898 30H23.2797C22.7226 30 22.2695 29.5421 22.2695 28.9766C22.2695 28.4123 22.7226 27.9533 23.2797 27.9533H28.9898ZM25.0299 12.6991L26.5049 13.8708C27.1097 14.3438 27.513 14.9673 27.6509 15.623C27.8101 16.3443 27.6403 17.0527 27.1628 17.6654L18.3764 29.0279C17.9732 29.5439 17.3789 29.8341 16.7422 29.8449L13.2404 29.8879C13.0494 29.8879 12.8902 29.7589 12.8478 29.5761L12.0519 26.1255C11.9139 25.4912 12.0519 24.8355 12.4551 24.3303L18.6841 16.268C18.7902 16.139 18.9813 16.1186 19.1086 16.2142L21.7297 18.2997C21.8994 18.4394 22.1329 18.5147 22.377 18.4824C22.8969 18.4179 23.2471 17.9449 23.1941 17.4397C23.1622 17.1817 23.0349 16.9667 22.8651 16.8055C22.812 16.7625 20.3183 14.763 20.3183 14.763C20.1591 14.634 20.1273 14.3975 20.2546 14.2373L21.2415 12.9571C22.1541 11.7853 23.7459 11.6778 25.0299 12.6991Z"/>
</svg>
