<svg width="12" height="12" viewBox="0 0 12 12" fill="none" xmlns="http://www.w3.org/2000/svg">
<g clip-path="url(#clip0)">
<path d="M6.0013 7.33366C6.73768 7.33366 7.33464 6.73671 7.33464 6.00033C7.33464 5.26395 6.73768 4.66699 6.0013 4.66699C5.26492 4.66699 4.66797 5.26395 4.66797 6.00033C4.66797 6.73671 5.26492 7.33366 6.0013 7.33366Z" fill="#7D9AC0"/>
<path d="M6.0013 2.66667C6.73768 2.66667 7.33464 2.06971 7.33464 1.33333C7.33464 0.596954 6.73768 0 6.0013 0C5.26492 0 4.66797 0.596954 4.66797 1.33333C4.66797 2.06971 5.26492 2.66667 6.0013 2.66667Z" fill="#7D9AC0"/>
<path d="M6.0013 12.0007C6.73768 12.0007 7.33464 11.4037 7.33464 10.6673C7.33464 9.93094 6.73768 9.33398 6.0013 9.33398C5.26492 9.33398 4.66797 9.93094 4.66797 10.6673C4.66797 11.4037 5.26492 12.0007 6.0013 12.0007Z" fill="#7D9AC0"/>
</g>
<defs>
<clipPath id="clip0">
<rect width="12" height="12" fill="white"/>
</clipPath>
</defs>
</svg>
