<svg width="40" height="40" viewBox="0 0 40 40" fill="none" xmlns="http://www.w3.org/2000/svg">
<path d="M0 20C0 8.95431 8.95431 0 20 0C31.0457 0 40 8.95431 40 20C40 31.0457 31.0457 40 20 40C8.95431 40 0 31.0457 0 20Z" fill="#ee4064" fill-opacity="0.08"/>
<path d="M12.424 27.576C12.8758 28.0284 13.4126 28.3872 14.0035 28.6315C14.5944 28.8759 15.2277 29.0011 15.8672 29C16.5067 29.0011 17.1402 28.8759 17.7313 28.6315C18.3223 28.3871 18.8593 28.0284 19.3113 27.576L21.7125 25.174C21.9077 24.9787 21.9076 24.6622 21.7124 24.4669L21.0422 23.7968C20.8469 23.6015 20.5303 23.6015 20.3351 23.7968L17.9341 26.1987C17.3852 26.7451 16.6422 27.0519 15.8677 27.0519C15.0931 27.0519 14.3502 26.7451 13.8013 26.1987C13.2543 25.65 12.9472 24.907 12.9472 24.1323C12.9472 23.3576 13.2543 22.6145 13.8013 22.0659L16.2031 19.6649C16.3984 19.4696 16.3985 19.153 16.2032 18.9577L15.533 18.2876C15.3378 18.0923 15.0212 18.0923 14.826 18.2875L12.424 20.6886C11.5121 21.6027 11 22.8411 11 24.1323C11 25.4234 11.5121 26.6619 12.424 27.576ZM27.576 19.3113C28.4874 18.397 28.9991 17.1587 28.9991 15.8677C28.9991 14.5767 28.4874 13.3383 27.576 12.424C26.6619 11.5121 25.4234 11 24.1323 11C22.8411 11 21.6027 11.5121 20.6886 12.424L18.2875 14.826C18.0923 15.0212 18.0923 15.3378 18.2876 15.533L18.9577 16.2032C19.153 16.3985 19.4696 16.3984 19.6649 16.2031L22.0659 13.8013C22.6148 13.2548 23.3578 12.948 24.1323 12.948C24.9068 12.948 25.6498 13.2548 26.1987 13.8013C26.7456 14.3499 27.0527 15.093 27.0527 15.8677C27.0527 16.6423 26.7456 17.3854 26.1987 17.9341L23.7968 20.3351C23.6015 20.5303 23.6015 20.8469 23.7968 21.0422L24.4669 21.7124C24.6622 21.9076 24.9787 21.9077 25.174 21.7125L27.576 19.3113Z" fill="#EE4064"/>
<path d="M22.7056 18.587C22.5105 18.783 22.1933 18.7835 21.9977 18.588L21.3268 17.9176C21.1317 17.7227 21.1313 17.4067 21.3257 17.2113L23.0427 15.4854C23.2379 15.2892 23.5553 15.2889 23.7509 15.4846L24.4213 16.1555C24.6161 16.3504 24.6164 16.6662 24.4221 16.8616L22.7056 18.587Z" fill="#EE4064"/>
<path d="M22.6964 18.598C22.5062 18.7881 22.198 18.7882 22.0078 18.5981L21.3185 17.9093C21.1282 17.7192 21.1282 17.4107 21.3184 17.2205L23.0519 15.4743C23.2421 15.2841 23.5506 15.2842 23.7407 15.4745L24.4295 16.1637C24.6196 16.354 24.6195 16.6622 24.4294 16.8524L22.6964 18.598Z" fill="#EE4064"/>
<path d="M16.8613 24.4217C16.666 24.6161 16.3501 24.6158 16.1552 24.421L15.4843 23.7506C15.2886 23.555 15.2889 23.2377 15.485 23.0425L17.5555 20.9819C17.751 20.7874 18.067 20.7878 18.2619 20.9828L18.9323 21.6537C19.1278 21.8493 19.1274 22.1665 18.9314 22.3616L16.8613 24.4217Z" fill="#EE4064"/>
<path d="M16.8521 24.4292C16.662 24.6193 16.3537 24.6194 16.1635 24.4293L15.4743 23.7405C15.284 23.5504 15.2839 23.2419 15.4742 23.0517L17.5647 20.9743C17.755 20.7841 18.0634 20.7842 18.2536 20.9745L18.9423 21.6637C19.1324 21.854 19.1324 22.1622 18.9422 22.3524L16.8521 24.4292Z" fill="#EE4064"/>
<path d="M28.4081 26.9509C28.605 27.1458 28.6059 27.4637 28.41 27.6597L27.7396 28.3306C27.5451 28.5253 27.2298 28.5261 27.0342 28.3326L11.59 13.048C11.393 12.853 11.3922 12.5349 11.5883 12.3389L12.2592 11.6685C12.4538 11.4741 12.7688 11.4734 12.9643 11.6668L28.4081 26.9509Z" fill="#EE4064"/>
</svg>
