<svg xmlns="http://www.w3.org/2000/svg" version="1.1" xmlns:xlink="http://www.w3.org/1999/xlink" xmlns:svgjs="http://svgjs.com/svgjs" width="1440" height="560" preserveAspectRatio="none" viewBox="0 0 1440 560"><g mask="url(&quot;#SvgjsMask1000&quot;)" fill="none"><rect width="1440" height="560" x="0" y="0" fill="#1e3266"></rect><path d="M1512 560L0 560 L0 323.29Q63.97 267.26, 120 331.23Q132.65 271.88, 192 284.53Q260.63 233.16, 312 301.79Q386.46 256.25, 432 330.72Q486.35 265.07, 552 319.41Q600.88 296.29, 624 345.17Q699.46 300.63, 744 376.09Q773.85 333.93, 816 363.78Q863.31 291.08, 936 338.39Q1014.05 296.44, 1056 374.49Q1080.09 278.58, 1176 302.67Q1228.38 235.06, 1296 287.44Q1356.21 275.65, 1368 335.86Q1387.23 283.09, 1440 302.32Q1486.8 277.12, 1512 323.91z" fill="#182f5d"></path><path d="M1512 560L0 560 L0 381.45Q24.09 333.54, 72 357.63Q128.66 342.29, 144 398.95Q210.83 345.78, 264 412.61Q274.63 351.25, 336 361.88Q366.56 320.44, 408 350.99Q484.31 307.3, 528 383.6Q602.87 338.47, 648 413.33Q715.99 361.32, 768 429.31Q788.79 378.1, 840 398.89Q909.27 348.16, 960 417.44Q963.85 349.28, 1032 353.13Q1097.06 298.19, 1152 363.24Q1234.22 325.46, 1272 407.67Q1344.76 360.44, 1392 433.2Q1426.98 348.18, 1512 383.16z" fill="#25467d"></path><path d="M1488 560L0 560 L0 507.46Q53.24 440.7, 120 493.94Q125.31 427.25, 192 432.55Q245.92 366.47, 312 420.39Q389.89 378.28, 432 456.18Q510.57 414.75, 552 493.32Q558.28 427.6, 624 433.88Q678.61 368.49, 744 423.09Q802.72 409.81, 816 468.53Q885.15 417.68, 936 486.83Q964.6 395.42, 1056 424.02Q1138.97 386.99, 1176 469.95Q1255.94 429.89, 1296 509.83Q1322.26 464.09, 1368 490.35Q1404.71 407.06, 1488 443.78z" fill="#356cb1"></path><path d="M1512 560L0 560 L0 567.54Q56.66 504.2, 120 560.87Q167.99 536.86, 192 584.84Q222.45 543.29, 264 573.74Q275.18 512.92, 336 524.11Q381.25 497.36, 408 542.6Q453.5 468.11, 528 513.61Q587.42 501.03, 600 560.44Q631.46 471.9, 720 503.36Q787.55 450.91, 840 518.46Q905.08 463.54, 960 528.61Q1027.65 476.26, 1080 543.91Q1103.33 495.23, 1152 518.56Q1243.44 490, 1272 581.44Q1311.72 501.16, 1392 540.88Q1443.57 472.45, 1512 524.03z" fill="white"></path></g><defs><mask id="SvgjsMask1000"><rect width="1440" height="560" fill="#ffffff"></rect></mask></defs></svg>