<svg width="16" height="16" viewBox="0 0 16 16" fill="none" xmlns="http://www.w3.org/2000/svg">
<path d="M5.33334 7.33333C5.15653 7.33333 4.98696 7.40357 4.86193 7.52859C4.73691 7.65361 4.66667 7.82318 4.66667 7.99999C4.66667 8.17681 4.73691 8.34638 4.86193 8.4714C4.98696 8.59642 5.15653 8.66666 5.33334 8.66666H10.6667C10.8435 8.66666 11.0131 8.59642 11.1381 8.4714C11.2631 8.34638 11.3333 8.17681 11.3333 7.99999C11.3333 7.82318 11.2631 7.65361 11.1381 7.52859C11.0131 7.40357 10.8435 7.33333 10.6667 7.33333H5.33334Z" fill="#F24E1E"/>
<path fill-rule="evenodd" clip-rule="evenodd" d="M15.3333 8C15.3333 12.05 12.05 15.3333 8 15.3333C3.95001 15.3333 0.666672 12.05 0.666672 8C0.666672 3.95 3.95001 0.666664 8 0.666664C12.05 0.666664 15.3333 3.95 15.3333 8ZM14 8C14 8.78793 13.8448 9.56814 13.5433 10.2961C13.2418 11.0241 12.7998 11.6855 12.2426 12.2426C11.6855 12.7998 11.0241 13.2417 10.2961 13.5433C9.56815 13.8448 8.78794 14 8 14C7.21207 14 6.43186 13.8448 5.7039 13.5433C4.97595 13.2417 4.31452 12.7998 3.75736 12.2426C3.20021 11.6855 2.75826 11.0241 2.45673 10.2961C2.1552 9.56814 2 8.78793 2.00001 8C2.00001 6.4087 2.63215 4.88257 3.75736 3.75736C4.88258 2.63214 6.40871 2 8 2C9.5913 2 11.1174 2.63214 12.2426 3.75736C13.3679 4.88257 14 6.4087 14 8Z" fill="#F24E1E"/>
</svg>
