<svg width="16" height="16" viewBox="0 0 16 16" fill="none" xmlns="http://www.w3.org/2000/svg">
<rect width="16" height="16" rx="2" fill="#395ad2"/>
<path d="M4.03914 8.09289C3.64861 7.70237 3.01545 7.70237 2.62492 8.09289C2.2344 8.48342 2.2344 9.11658 2.62492 9.50711L4.03914 8.09289ZM6.53203 12L5.82492 12.7071C6.03396 12.9161 6.32477 13.022 6.61926 12.9962C6.91375 12.9704 7.18174 12.8156 7.35126 12.5735L6.53203 12ZM12.9513 4.57346C13.268 4.12101 13.1579 3.49748 12.7055 3.18077C12.253 2.86405 11.6295 2.97409 11.3128 3.42654L12.9513 4.57346ZM2.62492 9.50711L5.82492 12.7071L7.23914 11.2929L4.03914 8.09289L2.62492 9.50711ZM7.35126 12.5735L12.9513 4.57346L11.3128 3.42654L5.7128 11.4265L7.35126 12.5735Z" fill="#F2F7FC"/>
</svg>
