<svg width="456" height="456" viewBox="0 0 456 456" fill="none" xmlns="http://www.w3.org/2000/svg">
<g clip-path="url(#clip0)">
<path d="M405.5 412.8C335.8 469.7 118.2 469.7 49.9001 412.8C-19.7999 355.9 -12.6999 112.7 49.9001 48.7C112.5 -15.3 342.9 -15.3 405.5 48.7C468.1 112.7 475.2 355.9 405.5 412.8Z" fill="#D1403F"/>
<path d="M229.1 313.2C166.6 363 96.9 388.6 31.4 390C-16.9 307.5 -7.00002 107 49.9 48.7C101.1 -3.9 261.8 -13.9 354.3 18.8C377 112.7 330.1 232.1 229.1 313.2Z" fill="#E24C4B"/>
<path d="M312.208 188.063C314.8 188.063 317.151 189.194 319.01 191.105C320.742 193.146 321.614 195.681 321.361 198.359C321.361 199.243 314.433 286.862 310.476 323.742C307.998 346.375 293.407 360.116 271.522 360.493C254.694 360.87 238.245 361 222.049 361C204.855 361 188.039 360.87 171.717 360.493C150.565 359.986 135.962 345.998 133.61 323.742C129.539 286.732 122.737 199.243 122.611 198.359C122.484 195.681 123.344 193.146 125.089 191.105C126.808 189.194 129.286 188.063 131.891 188.063H312.208ZM248.841 101C260.334 101 270.6 109.021 273.572 120.461L275.696 129.951C277.415 137.686 284.116 143.159 291.828 143.159H329.733C334.79 143.159 339 147.358 339 152.7V157.64C339 162.853 334.79 167.182 329.733 167.182H114.28C109.21 167.182 105 162.853 105 157.64V152.7C105 147.358 109.21 143.159 114.28 143.159H152.184C159.884 143.159 166.585 137.686 168.317 129.964L170.302 121.098C173.387 109.021 183.539 101 195.159 101H248.841Z" fill="white"/>
</g>
<defs>
<clipPath id="clip0">
<rect width="455.4" height="455.4" fill="white"/>
</clipPath>
</defs>
</svg>
