<svg width="456" height="456" viewBox="0 0 456 456" fill="none" xmlns="http://www.w3.org/2000/svg">
<path d="M405.5 412.8C335.8 469.7 118.2 469.7 49.9001 412.8C-19.7999 355.9 -12.6999 112.7 49.9001 48.7C112.5 -15.3 342.9 -15.3 405.5 48.7C468.1 112.7 475.2 355.9 405.5 412.8Z" fill="#395ad2"/>
<path d="M229.1 313.2C166.6 363 96.9002 388.6 31.4002 390C-16.8998 307.5 -6.99978 107 49.9002 48.7C101.1 -3.9 261.8 -13.9 354.3 18.8C377 112.7 330.1 232.1 229.1 313.2Z" fill="#395ad2"/>
<circle cx="112" cy="228" r="30" fill="white"/>
<circle cx="228" cy="228" r="30" fill="white"/>
<circle cx="344" cy="228" r="30" fill="white"/>
</svg>
