<svg width="17" height="18" viewBox="0 0 17 18" fill="none" xmlns="http://www.w3.org/2000/svg">
<path d="M8.05625 9.34695C10.6277 9.34695 12.7297 7.24492 12.7297 4.67348C12.7297 2.10203 10.6277 0 8.05625 0C5.48481 0 3.38281 2.10203 3.38281 4.67348C3.38281 7.24492 5.48484 9.34695 8.05625 9.34695Z" fill="#B5CBE8"/>
<path d="M16.0777 13.0814C15.9553 12.7753 15.792 12.4896 15.6084 12.2243C14.6696 10.8365 13.2206 9.91812 11.588 9.69363C11.3839 9.67324 11.1594 9.71402 10.9961 9.83648C10.139 10.4691 9.11861 10.7957 8.05736 10.7957C6.99611 10.7957 5.97572 10.4691 5.11857 9.83648C4.95529 9.71402 4.73079 9.65281 4.52673 9.69363C2.89407 9.91812 1.4247 10.8365 0.506339 12.2243C0.322667 12.4896 0.159386 12.7957 0.0369639 13.0814C-0.0242471 13.2039 -0.00385646 13.3467 0.0573545 13.4692C0.220636 13.7549 0.424698 14.0406 0.60837 14.2855C0.894073 14.6733 1.20021 15.0202 1.54716 15.3467C1.83286 15.6324 2.15939 15.8977 2.48595 16.163C4.09818 17.3671 6.03696 17.9998 8.03697 17.9998C10.037 17.9998 11.9758 17.3671 13.588 16.163C13.9145 15.9182 14.241 15.6324 14.5268 15.3467C14.8533 15.0202 15.1798 14.6732 15.4656 14.2855C15.6696 14.0202 15.8533 13.7549 16.0166 13.4692C16.1186 13.3467 16.139 13.2038 16.0777 13.0814Z" fill="#B5CBE8"/>
</svg>
